Information:
Format : MPEG-4
Format profile : Base Media / Version 2
Codec ID : mp42
File size : 108 MiB
Duration : 4mn 49s
Overall bit rate mode : Variable
Overall bit rate : 3 131 Kbps

Screenshots:
 
http://hostimg.cheerarena.com/image/img-h5htk5k6k7.html

 
http://hostimg.cheerarena.com//img-517cbd8ae23c0.html 
http://hostimg.cheerarena.com//img-517cbd8da4e6c.html 
http://hostimg.cheerarena.com//img-517cbd8f264d0.html 
http://hostimg.cheerarena.com//img-517cbd91b8c0e.html 
http://hostimg.cheerarena.com//img-517cbd9639081.html


Video

ID : 1
Format : AVC
Format/Info : Advanced Video Codec
Format profile : High@L3.1
Format settings, CABAC : Yes
Format settings, ReFrames : 1 frame
Format settings, GOP : M=1, N=30
Codec ID : avc1
Codec ID/Info : Advanced Video Coding
Duration : 4mn 49s
Bit rate : 2 984 Kbps
Maximum bit rate : 5 729 Kbps
Width : 1 280 pixels
Height : 720 pixels
Display aspect ratio : 16:9
Frame rate mode : Constant
Frame rate : 25.000 fps
Color space : YUV
Chroma subsampling : 4:2:0
Bit depth : 8 bits
Scan type : Progressive
Bits/(Pixel*Frame) : 0.130
Stream size : 103 MiB (95%)

Audio

ID : 2
Format : AAC
Format/Info : Advanced Audio Codec
Format profile : LC
Codec ID : 40
Duration : 4mn 49s
Bit rate mode : Variable
Bit rate : 144 Kbps
Maximum bit rate : 194 Kbps
Channel(s) : 2 channels
Channel positions : Front: L R
Sampling rate : 44.1 KHz
Compression mode : Lossy
Stream size : 4.97 MiB (5%)